# xmcd
#
# Track frame offsets: 
#        150
#        12933
#        26991
#        48324
#        57957
#        74340
#        87423
#        97056
#        106014
#        117663
#        135546
#        149004
#        165312
#        183645
#        199878
#        221586
#        232119
#        243177
#
# Disc length: 3471 seconds
#
# Revision: 6
# Processed by: cddbd v1.5.2PL0 Copyright (c) Steve Scherf et al.
# Submitted via: ExactAudioCopy v0.99pb4
#
DISCID=0d0d8d12
DTITLE=Stare Dobre Malzenstwo - Bieszczadzkie Anioly
DYEAR=2000
DGENRE=Acoustic
TTITLE0=Tu asfalt sie konczy
TTITLE1=Najeli
TTITLE2=Nocna piesn zarowki
TTITLE3=Kolysanka z Ogrodowej
TTITLE4=Zbieg okolicznosci lagodzacych
TTITLE5=Przyjazd po latach
TTITLE6=List do Ogrodowej
TTITLE7=Oczekujacej
TTITLE8=Glupi Gienek
TTITLE9=Bieszczadzkie Anioly
TTITLE10=Krynica Zdroj
TTITLE11=Czarna suka
TTITLE12=Aniol zimowy
TTITLE13=Do ostatniej pestki...
TTITLE14=Anioly na poddaszu placza
TTITLE15=Bieszczadzki odjazd
TTITLE16=Odludzie
TTITLE17=Leluchow
EXTD=YEAR: 2000
EXTT0=
EXTT1=
EXTT2=
EXTT3=
EXTT4=
EXTT5=
EXTT6=
EXTT7=
EXTT8=
EXTT9=
EXTT10=
EXTT11=
EXTT12=
EXTT13=
EXTT14=
EXTT15=
EXTT16=
EXTT17=
PLAYORDER=
